<svg width="128" height="32" viewBox="0 0 128 32" fill="none" xmlns="http://www.w3.org/2000/svg">
<path d="M16 21.3332C17.4144 21.3332 18.771 20.7713 19.7712 19.7711C20.7714 18.7709 21.3333 17.4143 21.3333 15.9998C21.3333 14.5853 20.7714 13.2288 19.7712 12.2286C18.771 11.2284 17.4144 10.6665 16 10.6665C14.5855 10.6665 13.2289 11.2284 12.2287 12.2286C11.2285 13.2288 10.6666 14.5853 10.6666 15.9998C10.6666 17.4143 11.2285 18.7709 12.2287 19.7711C13.2289 20.7713 14.5855 21.3332 16 21.3332Z" stroke="#FEFEFE" stroke-width="1.8" stroke-linecap="round" stroke-linejoin="round"/>
<path d="M4 21.3333V10.6667C4 8.89856 4.70238 7.20286 5.95262 5.95262C7.20286 4.70238 8.89856 4 10.6667 4H21.3333C23.1014 4 24.7971 4.70238 26.0474 5.95262C27.2976 7.20286 28 8.89856 28 10.6667V21.3333C28 23.1014 27.2976 24.7971 26.0474 26.0474C24.7971 27.2976 23.1014 28 21.3333 28H10.6667C8.89856 28 7.20286 27.2976 5.95262 26.0474C4.70238 24.7971 4 23.1014 4 21.3333Z" stroke="#FEFEFE" stroke-width="1.8"/>
<path d="M23.3334 8.68019L23.3467 8.66553" stroke="#FEFEFE" stroke-width="1.5" stroke-linecap="round" stroke-linejoin="round"/>
<path d="M73.8062 6.92344C71.1875 4.39219 67.7 3 63.9937 3C56.3437 3 50.1188 9.00268 50.1188 16.3795C50.1188 18.7359 50.7563 21.0382 51.9688 23.0692L50 30L57.3562 28.1377C59.3813 29.2045 61.6625 29.765 63.9875 29.765H63.9937C71.6375 29.765 78 23.7623 78 16.3855C78 12.8116 76.425 9.45469 73.8062 6.92344ZM63.9937 27.5109C61.9187 27.5109 59.8875 26.9746 58.1187 25.9621L57.7 25.721L53.3375 26.8239L54.5 22.7196L54.225 22.2978C53.0688 20.5259 52.4625 18.4828 52.4625 16.3795C52.4625 10.2502 57.6375 5.26004 64 5.26004C67.0812 5.26004 69.975 6.41719 72.15 8.52054C74.325 10.6239 75.6625 13.4143 75.6562 16.3855C75.6562 22.5208 70.35 27.5109 63.9937 27.5109ZM70.3188 19.1819C69.975 19.0132 68.2688 18.2056 67.95 18.0971C67.6313 17.9826 67.4 17.9283 67.1688 18.2658C66.9375 18.6033 66.275 19.3507 66.0688 19.5797C65.8688 19.8027 65.6625 19.8328 65.3188 19.6641C63.2812 18.6817 61.9438 17.9103 60.6 15.6864C60.2438 15.0958 60.9562 15.1379 61.6187 13.8603C61.7312 13.6373 61.675 13.4444 61.5875 13.2757C61.5 13.1069 60.8062 11.4616 60.5187 10.7926C60.2375 10.1417 59.95 10.2321 59.7375 10.2201C59.5375 10.208 59.3062 10.208 59.075 10.208C58.8438 10.208 58.4688 10.2924 58.15 10.6239C57.8312 10.9614 56.9375 11.769 56.9375 13.4143C56.9375 15.0596 58.1813 16.6507 58.35 16.8737C58.525 17.0967 60.7937 20.4717 64.275 21.9241C66.475 22.8402 67.3375 22.9185 68.4375 22.7618C69.1063 22.6654 70.4875 21.9542 70.775 21.1708C71.0625 20.3873 71.0625 19.7183 70.975 19.5797C70.8938 19.429 70.6625 19.3446 70.3188 19.1819Z" fill="#FEFEFE"/>
<path d="M118.667 2.6665H114.667C112.899 2.6665 111.203 3.36888 109.953 4.61913C108.702 5.86937 108 7.56506 108 9.33317V13.3332H104V18.6665H108V29.3332H113.333V18.6665H117.333L118.667 13.3332H113.333V9.33317C113.333 8.97955 113.474 8.64041 113.724 8.39036C113.974 8.14031 114.313 7.99984 114.667 7.99984H118.667V2.6665Z" stroke="#FEFEFE" stroke-width="1.8" stroke-linecap="round" stroke-linejoin="round"/>
</svg>
