<svg width="152" height="24" viewBox="0 0 152 24" fill="none" xmlns="http://www.w3.org/2000/svg">
<path d="M12 17.275L7.84996 19.775C7.66663 19.8916 7.47496 19.9416 7.27496 19.9249C7.07496 19.9083 6.89996 19.8416 6.74996 19.725C6.59996 19.6083 6.4833 19.4626 6.39996 19.288C6.31663 19.1133 6.29996 18.9173 6.34996 18.7L7.44996 13.975L3.77496 10.8C3.6083 10.65 3.5043 10.479 3.46296 10.287C3.42163 10.095 3.43396 9.90762 3.49996 9.72495C3.56596 9.54228 3.66596 9.39228 3.79996 9.27495C3.93396 9.15762 4.1173 9.08262 4.34996 9.04995L9.19996 8.62495L11.075 4.17495C11.1583 3.97495 11.2876 3.82495 11.463 3.72495C11.6383 3.62495 11.8173 3.57495 12 3.57495C12.1826 3.57495 12.3616 3.62495 12.537 3.72495C12.7123 3.82495 12.8416 3.97495 12.925 4.17495L14.8 8.62495L19.65 9.04995C19.8833 9.08328 20.0666 9.15828 20.2 9.27495C20.3333 9.39162 20.4333 9.54162 20.5 9.72495C20.5666 9.90829 20.5793 10.096 20.538 10.288C20.4966 10.48 20.3923 10.6506 20.225 10.8L16.55 13.975L17.65 18.7C17.7 18.9166 17.6833 19.1126 17.6 19.288C17.5166 19.4633 17.4 19.609 17.25 19.725C17.1 19.841 16.925 19.9076 16.725 19.9249C16.525 19.9423 16.3333 19.8923 16.15 19.775L12 17.275Z" fill="#F2A830"/>
<path d="M44 17.275L39.85 19.775C39.6666 19.8916 39.475 19.9416 39.275 19.9249C39.075 19.9083 38.9 19.8416 38.75 19.725C38.6 19.6083 38.4833 19.4626 38.4 19.288C38.3166 19.1133 38.3 18.9173 38.35 18.7L39.45 13.975L35.775 10.8C35.6083 10.65 35.5043 10.479 35.463 10.287C35.4216 10.095 35.434 9.90762 35.5 9.72495C35.566 9.54228 35.666 9.39228 35.8 9.27495C35.934 9.15762 36.1173 9.08262 36.35 9.04995L41.2 8.62495L43.075 4.17495C43.1583 3.97495 43.2876 3.82495 43.463 3.72495C43.6383 3.62495 43.8173 3.57495 44 3.57495C44.1826 3.57495 44.3616 3.62495 44.537 3.72495C44.7123 3.82495 44.8416 3.97495 44.925 4.17495L46.8 8.62495L51.65 9.04995C51.8833 9.08328 52.0666 9.15828 52.2 9.27495C52.3333 9.39162 52.4333 9.54162 52.5 9.72495C52.5666 9.90829 52.5793 10.096 52.538 10.288C52.4966 10.48 52.3923 10.6506 52.225 10.8L48.55 13.975L49.65 18.7C49.7 18.9166 49.6833 19.1126 49.6 19.288C49.5166 19.4633 49.4 19.609 49.25 19.725C49.1 19.841 48.925 19.9076 48.725 19.9249C48.525 19.9423 48.3333 19.8923 48.15 19.775L44 17.275Z" fill="#F2A830"/>
<path d="M76 17.275L71.85 19.775C71.6666 19.8916 71.475 19.9416 71.275 19.9249C71.075 19.9083 70.9 19.8416 70.75 19.725C70.6 19.6083 70.4833 19.4626 70.4 19.288C70.3166 19.1133 70.3 18.9173 70.35 18.7L71.45 13.975L67.775 10.8C67.6083 10.65 67.5043 10.479 67.463 10.287C67.4216 10.095 67.434 9.90762 67.5 9.72495C67.566 9.54228 67.666 9.39228 67.8 9.27495C67.934 9.15762 68.1173 9.08262 68.35 9.04995L73.2 8.62495L75.075 4.17495C75.1583 3.97495 75.2876 3.82495 75.463 3.72495C75.6383 3.62495 75.8173 3.57495 76 3.57495C76.1826 3.57495 76.3616 3.62495 76.537 3.72495C76.7123 3.82495 76.8416 3.97495 76.925 4.17495L78.8 8.62495L83.65 9.04995C83.8833 9.08328 84.0666 9.15828 84.2 9.27495C84.3333 9.39162 84.4333 9.54162 84.5 9.72495C84.5666 9.90829 84.5793 10.096 84.538 10.288C84.4966 10.48 84.3923 10.6506 84.225 10.8L80.55 13.975L81.65 18.7C81.7 18.9166 81.6833 19.1126 81.6 19.288C81.5166 19.4633 81.4 19.609 81.25 19.725C81.1 19.841 80.925 19.9076 80.725 19.9249C80.525 19.9423 80.3333 19.8923 80.15 19.775L76 17.275Z" fill="#F2A830"/>
<path d="M108 17.275L103.85 19.775C103.667 19.8916 103.475 19.9416 103.275 19.9249C103.075 19.9083 102.9 19.8416 102.75 19.725C102.6 19.6083 102.483 19.4626 102.4 19.288C102.317 19.1133 102.3 18.9173 102.35 18.7L103.45 13.975L99.775 10.8C99.6083 10.65 99.5043 10.479 99.463 10.287C99.4216 10.095 99.434 9.90762 99.5 9.72495C99.566 9.54228 99.666 9.39228 99.8 9.27495C99.934 9.15762 100.117 9.08262 100.35 9.04995L105.2 8.62495L107.075 4.17495C107.158 3.97495 107.288 3.82495 107.463 3.72495C107.638 3.62495 107.817 3.57495 108 3.57495C108.183 3.57495 108.362 3.62495 108.537 3.72495C108.712 3.82495 108.842 3.97495 108.925 4.17495L110.8 8.62495L115.65 9.04995C115.883 9.08328 116.067 9.15828 116.2 9.27495C116.333 9.39162 116.433 9.54162 116.5 9.72495C116.567 9.90829 116.579 10.096 116.538 10.288C116.497 10.48 116.392 10.6506 116.225 10.8L112.55 13.975L113.65 18.7C113.7 18.9166 113.683 19.1126 113.6 19.288C113.517 19.4633 113.4 19.609 113.25 19.725C113.1 19.841 112.925 19.9076 112.725 19.9249C112.525 19.9423 112.333 19.8923 112.15 19.775L108 17.275Z" fill="#F2A830"/>
<path d="M140 17.275L135.85 19.775C135.667 19.8916 135.475 19.9416 135.275 19.9249C135.075 19.9083 134.9 19.8416 134.75 19.725C134.6 19.6083 134.483 19.4626 134.4 19.288C134.317 19.1133 134.3 18.9173 134.35 18.7L135.45 13.975L131.775 10.8C131.608 10.65 131.504 10.479 131.463 10.287C131.422 10.095 131.434 9.90762 131.5 9.72495C131.566 9.54228 131.666 9.39228 131.8 9.27495C131.934 9.15762 132.117 9.08262 132.35 9.04995L137.2 8.62495L139.075 4.17495C139.158 3.97495 139.288 3.82495 139.463 3.72495C139.638 3.62495 139.817 3.57495 140 3.57495C140.183 3.57495 140.362 3.62495 140.537 3.72495C140.712 3.82495 140.842 3.97495 140.925 4.17495L142.8 8.62495L147.65 9.04995C147.883 9.08328 148.067 9.15828 148.2 9.27495C148.333 9.39162 148.433 9.54162 148.5 9.72495C148.567 9.90829 148.579 10.096 148.538 10.288C148.497 10.48 148.392 10.6506 148.225 10.8L144.55 13.975L145.65 18.7C145.7 18.9166 145.683 19.1126 145.6 19.288C145.517 19.4633 145.4 19.609 145.25 19.725C145.1 19.841 144.925 19.9076 144.725 19.9249C144.525 19.9423 144.333 19.8923 144.15 19.775L140 17.275Z" fill="#F2A830"/>
</svg>
